<svg width="143" height="116" viewBox="0 0 143 116" fill="none" xmlns="http://www.w3.org/2000/svg">
<g clip-path="url(#clip0_4541_165860)">
<path d="M141.461 21.9041C132.533 19.1373 121.142 16.2936 113.753 14.987L112.83 14.8333C112.753 14.8333 111.906 14.6796 110.906 14.5259V3.84282L71.5 0L31.9403 3.84282V14.6027C30.247 14.9102 28.6308 15.2176 27.0145 15.525C25.0135 15.9093 22.7815 17.2927 21.4731 19.291C20.3186 18.3687 18.8563 17.677 17.0861 17.677C16.4704 17.677 15.9316 17.7538 15.3159 17.9076C11.2368 18.9067 5.38751 20.5207 1.0775 21.9041L0 22.2884V35.0465L1.46232 34.6623V40.0422L0 40.5033V53.2615L2.23197 52.5698C5.38751 51.5707 9.69752 50.341 12.6222 49.4956L30.247 64.7131H32.2481C33.0947 74.7045 36.6351 84.3884 42.5614 92.8426C49.3342 102.603 59.1087 110.443 70.8073 115.669L71.5 115.976L72.1927 115.669C77.1954 113.594 83.0447 110.135 87.2777 106.83C87.8165 106.83 88.2783 106.907 88.74 106.907C92.7422 106.907 95.8977 105.754 97.9758 103.526C99.8229 101.527 100.67 98.9143 100.593 95.6094C101.131 94.9946 101.747 93.9954 101.901 92.3815C103.055 92.074 104.056 91.3055 104.749 90.3063C105.826 88.6923 106.057 86.5404 105.441 84.5421C108.443 78.2399 110.213 71.6302 110.829 64.79H112.753L128.454 51.2633L130.609 49.4956L134.303 50.5715C136.535 51.1864 138.921 51.955 140.845 52.5698L143.077 53.2615V22.5189L141.461 21.9041Z" fill="white"/>
<path d="M98.9763 91.9203L99.5151 88.6155C99.4381 88.6155 96.5135 89.3072 96.2056 88.9229C96.8213 90.998 96.2056 93.2269 95.8208 93.7649C97.591 103.91 86.9699 103.372 86.9699 103.372C91.5108 102.373 92.2804 100.759 93.0501 99.1448C93.8967 97.454 92.8192 93.8417 92.8192 93.8417C94.9742 90.8443 93.5118 88.4618 93.5118 88.4618C92.8192 88.0775 92.5883 86.4635 91.8956 85.695L91.2029 86.0024C90.6642 86.0024 88.6631 85.0801 87.8165 86.0024C86.8159 87.0784 86.2002 87.5395 86.2002 87.5395C86.2002 87.5395 86.0463 88.3849 84.8918 87.3858C83.7374 86.3867 82.9677 86.5404 79.2734 82.5438C75.6561 78.5473 65.8046 77.3176 65.8046 77.3176C67.0361 80.2381 68.5753 91.0749 68.5753 91.0749C69.9607 93.6112 71.1152 94.9946 71.8079 97.0697C72.5005 99.1448 73.2702 100.144 73.3471 101.527C73.4241 102.911 76.1179 103.218 76.1179 103.218L77.3493 103.141C77.7341 103.141 78.6577 102.142 78.8116 101.758C78.9656 101.604 78.5038 99.9134 79.8891 92.7657C79.8891 92.7657 79.0425 91.6129 78.1189 92.4583C77.8111 90.1526 79.1195 92.074 78.7347 90.2295C78.2729 88.1544 78.2729 88.1544 78.2729 88.1544C81.1206 88.9998 80.197 89.3841 80.8127 90.5369C81.4284 91.6898 83.2756 91.6898 84.0452 92.074C87.5856 93.7649 87.8934 95.9169 88.3552 97.1466C88.817 98.3763 90.2024 100.605 86.9699 103.449C89.6636 103.91 93.5118 104.832 95.6668 102.296C97.8218 99.7597 98.0527 95.1483 97.9758 94.764C100.131 92.4583 97.6679 89.7683 97.6679 89.7683M89.8175 89.3072C89.9715 88.7692 90.3563 88.7692 91.2029 88.6155C91.9725 88.4618 91.5108 89.2303 91.5108 89.2303C91.5108 89.2303 91.6647 89.6915 91.7417 90.5369C91.8186 91.3823 91.6647 90.8443 91.6647 90.8443C91.2029 91.1518 90.6642 91.536 90.4333 91.1518C90.2024 90.6906 89.5866 89.8452 89.8175 89.3072Z" fill="#B0B7BC"/>
<path d="M102.286 83.9272C101.824 82.1595 101.593 76.8565 100.285 72.8599C98.9763 68.7865 95.6668 65.1743 92.2034 62.4843C88.817 59.8712 83.0446 55.0292 80.9666 54.5681C72.4235 52.6467 61.2637 56.2589 50.7196 61.4852L36.6351 63.0223C36.789 65.0974 37.0199 67.0957 37.3278 69.0171L38.0974 72.5525C42.3304 89.3841 54.7217 103.295 71.346 110.827L73.4241 107.753C73.4241 107.753 75.1943 106.523 75.1943 106.369C75.1943 106.216 74.5786 102.142 74.5786 102.142L73.0393 99.5291L70.8073 99.1448L70.4994 98.7605C67.6518 95.3789 67.8057 90.8443 66.4203 87.2321C67.9596 86.6172 68.3444 86.1561 65.6507 84.2347C65.6507 84.2347 65.7276 81.0836 69.5759 87.6932C69.7298 86.8478 69.7298 77.3944 62.4951 72.7062L64.7271 73.8591C66.9591 73.8591 69.9607 80.4687 72.4235 77.087C72.4235 77.087 72.2696 72.0145 66.6512 69.6319C70.4994 67.8643 72.1927 71.7071 75.3482 73.3211C78.1959 74.935 79.8121 74.7045 80.8896 76.4722C82.4289 79.0084 85.9693 80.6224 86.508 84.1578C86.8159 86.3867 90.1254 86.3098 91.1259 86.3867H91.2029C93.05 88.4618 95.0511 89.3072 96.0516 88.6924C96.3595 89.0766 97.437 89.4609 97.437 89.4609C97.437 89.4609 98.2066 90.2295 98.2835 90.2295C98.3605 90.2295 98.5914 90.2295 98.8223 90.3063H99.2841C100.054 90.3063 100.9 89.8452 101.439 89.1535C102.825 87.6164 102.748 85.6949 102.286 83.9272Z" fill="#A30046"/>
<path d="M62.7261 67.8643C66.5743 66.0966 72.8854 68.4023 76.0409 69.9394C78.8886 71.5534 81.2745 74.3971 82.352 76.1648C83.8913 78.701 85.3536 82.9281 86.5851 85.157C87.6626 87.1552 90.2794 86.4635 91.3569 86.5404C93.204 88.6155 95.2051 89.4609 96.2056 88.8461C96.5135 89.2303 97.591 89.6146 97.591 89.6146C97.591 89.6146 97.8219 89.6915 98.2067 89.6915C100.439 88.3081 101.901 83.8504 98.6685 80.5456C99.2072 82.3133 99.9769 86.0024 96.5904 87.8469C96.5904 87.8469 96.5904 87.7701 96.5904 87.6932C98.7454 84.6958 97.2831 79.4696 94.5124 78.5473C94.5124 78.5473 98.3606 83.8504 94.4354 86.0792C94.5124 83.2355 92.5113 77.9325 89.8945 77.1639C91.6647 79.5464 92.7422 82.6207 91.2029 84.3884C87.8165 82.7744 86.5081 75.0888 81.5054 70.8617C76.5027 66.4808 68.1906 64.252 62.7261 67.8643Z" fill="#72253D"/>
<path d="M83.1216 91.6897C83.1216 91.6897 91.2029 92.8426 87.3547 100.605C82.6598 104.755 77.3493 108.214 71.423 110.904V93.2269C71.9618 93.7649 71.8079 100.682 72.4236 101.22C73.8089 102.296 75.2713 102.834 76.1948 103.141C76.5797 103.218 77.5032 103.218 78.4268 101.758C79.3504 100.298 81.0436 95.84 81.2745 90.1526L82.429 91.3055L83.1216 91.6897Z" fill="#72253D"/>
<path d="M68.6523 95.9169C69.5759 89.4609 68.3445 84.7727 66.3434 81.3141C62.4952 74.7045 55.7993 72.8599 55.7993 72.8599C61.1868 76.7027 64.3423 86.0792 60.0323 91.6898C61.5716 92.1509 63.4187 92.8426 65.2659 93.7649C66.4973 94.3797 67.5748 95.0714 68.6523 95.9169Z" fill="#72253D"/>
<path d="M71.8079 101.22C71.9618 101.374 72.1157 101.527 72.2696 101.604C72.1157 101.451 71.9618 101.374 71.8079 101.22Z" fill="#A30046"/>
<path d="M85.2766 82.6975C84.9688 83.2355 84.7379 83.005 84.0452 83.005C83.0447 82.9281 81.9672 83.3124 82.0441 82.3132C82.0441 82.2364 82.0441 82.2364 82.0441 82.1595C81.8902 81.929 81.8132 81.6215 81.8132 81.3141C81.8902 80.5456 82.5059 80.0076 83.1986 80.0844C83.5834 80.0844 83.9682 80.315 84.1991 80.6224C83.8913 79.9307 84.1222 78.5473 83.5064 78.3936C82.198 77.9324 79.8121 80.2381 79.7352 81.929C79.6582 83.8504 81.6593 86.0792 83.5834 86.1561C84.507 86.2329 85.8154 85.4644 86.5081 84.8495C86.2002 84.4652 85.7384 83.543 85.5075 83.005" fill="#5B6670"/>
<path d="M73.732 18.753L74.6555 14.5259H75.81C78.1959 14.6027 80.5818 14.6796 82.9677 14.7564L84.8149 15.3713V15.6019C84.8918 15.525 84.9688 15.4481 85.0457 15.3713C86.0463 14.6027 87.5856 15.0639 88.894 15.0639C89.0479 15.0639 89.2018 15.0639 89.3558 15.0639C91.9725 15.2944 94.6663 15.525 97.2831 15.8324C98.5915 15.9861 99.8229 16.601 100.67 17.5233V16.1398L103.132 16.4473C104.21 16.601 105.21 16.7547 106.288 16.9084V9.99133L71.5 5.37994V14.5259" fill="#72253D"/>
<path d="M71.5 5.37994V14.5259L71.423 14.3721L69.9607 13.9879C67.5748 13.9879 65.4967 13.5267 63.1109 13.6804L61.8794 14.1416L62.0333 21.3661L63.3417 21.9809L62.726 31.8186L59.8783 31.7417C58.8778 26.4386 57.5694 20.9818 56.6458 15.6787L56.5689 14.2184L54.6448 14.6796C51.4123 14.9101 49.1803 15.2944 46.0247 15.6019L45.0242 15.0639L45.1012 16.5241C44.1776 22.1346 42.0995 28.0526 41.176 33.6631H41.022L39.7136 21.1355C39.7136 19.7521 39.9445 19.291 39.021 18.3687C38.2513 17.5233 37.7895 15.7556 36.6351 15.6787V9.99133L71.5 5.37994Z" fill="#A30046"/>
<path d="M106.211 63.0223C105.826 68.8634 104.518 74.5508 102.363 79.777C101.747 76.2416 100.516 72.7062 99.5151 70.7848C98.8224 69.4782 94.9742 64.1751 92.4343 61.7157L106.211 63.0223Z" fill="#72253D"/>
<path d="M43.1001 53.2615V48.8807L41.2529 52.5698L39.3288 49.3418V53.7226L36.789 54.0301V52.3392L37.3278 52.2624V47.4973L36.712 47.651V45.9601L39.2519 45.6527L41.176 49.0344L43.1001 45.1916L45.6399 44.8842V46.575L45.1012 46.6519V51.417L45.6399 51.3401V53.0309L43.1001 53.2615Z" fill="#A30046"/>
<path d="M53.5673 52.2624L53.2594 50.341L51.8741 50.4178L51.5662 52.4161L49.0264 52.6467V50.9558L49.6421 50.879L50.7965 44.3462L54.3369 44.0388L55.4914 50.4178L56.0301 50.341V52.0318L53.5673 52.2624ZM52.5667 45.499L52.028 48.9576L53.0285 48.8807L52.5667 45.499Z" fill="#A30046"/>
<path d="M59.4166 45.3453V43.6545L63.6496 43.5008C65.1119 43.4239 65.5737 43.9619 65.5737 45.2685C65.5737 46.575 65.4198 47.113 64.4193 47.4973C65.2659 47.651 65.5737 48.189 65.5737 49.0344V49.803H66.1125V51.4938L64.5732 51.5707C63.8805 51.5707 63.4187 51.6475 63.4187 50.879V48.3427L62.1873 48.4196V51.7244L59.4166 51.8013V50.1104H59.9553V45.3453H59.4166ZM63.4187 45.1916L62.1873 45.2685V46.8824L63.4187 46.8056V45.1916Z" fill="#A30046"/>
<path d="M75.5021 49.265C75.5021 50.8021 75.2712 51.5707 73.578 51.5707H71.8078C70.3455 51.5707 69.7298 51.1864 69.7298 49.6493V45.4222C69.7298 44.1156 70.1146 43.4239 71.5 43.4239H73.578C75.0403 43.4239 75.5021 44.0387 75.5021 45.4222V49.265ZM73.2702 45.1147H71.8848V49.8798H73.2702V45.1147Z" fill="#A30046"/>
<path d="M85.0458 49.6493C85.0458 51.1864 84.8149 51.955 83.1217 51.8781L81.3515 51.8013C79.8892 51.7244 79.2734 51.3401 79.2734 49.803V45.5759C79.2734 44.2693 79.6583 43.5776 81.0436 43.6545L83.1217 43.7313C84.584 43.8082 85.0458 44.423 85.0458 45.8064V49.6493ZM82.8138 45.3453L81.4284 45.2685V50.0336L82.8138 50.1104V45.3453Z" fill="#A30046"/>
<path d="M93.3579 52.5698L91.1259 48.0353V52.3392L88.5861 52.1087V50.4178L89.1249 50.4947V45.7296L88.5861 45.6527V43.9619L91.2029 44.1925L93.4349 48.8807V44.423L95.8977 44.6536V46.3444L95.359 46.2676V52.7235L93.3579 52.5698Z" fill="#A30046"/>
<path d="M101.67 48.5733L103.132 48.8038C104.364 48.9575 105.057 49.3418 105.057 50.7252V52.1855C105.057 53.2615 104.749 53.9532 103.286 53.7226L99.592 53.2615V50.7252L101.67 51.0327V51.8012L102.902 51.9549V50.341L101.131 50.1104C99.9769 49.9567 99.4381 49.1881 99.4381 48.1121V46.8056C99.4381 45.5759 100.054 45.1916 101.208 45.3453L104.826 45.8064V48.189L102.902 47.9584V47.2667L101.67 47.113V48.5733Z" fill="#A30046"/>
<path d="M106.75 46.1907C107.135 46.1907 107.519 46.4982 107.519 46.9593C107.519 47.4204 107.212 47.7279 106.75 47.7279C106.365 47.7279 105.98 47.4204 105.98 46.9593C105.98 46.575 106.288 46.1907 106.75 46.1907ZM106.75 46.3444C106.442 46.3444 106.134 46.6519 106.134 46.9593C106.134 47.3436 106.442 47.5742 106.75 47.5742C107.058 47.5742 107.365 47.2667 107.365 46.9593C107.365 46.575 107.058 46.3444 106.75 46.3444ZM106.596 47.4204H106.442V46.575C106.519 46.575 106.596 46.575 106.673 46.575C106.827 46.575 106.904 46.575 106.904 46.6519C106.981 46.6519 106.981 46.7287 106.981 46.8056C106.981 46.8824 106.904 46.9593 106.827 47.0362C106.904 47.0362 106.981 47.113 106.981 47.2667C106.981 47.4204 107.058 47.4204 107.058 47.4973H106.904C106.904 47.4973 106.827 47.4204 106.827 47.2667C106.827 47.1899 106.75 47.113 106.673 47.113H106.596V47.4204ZM106.596 46.9593H106.673C106.75 46.9593 106.904 46.8824 106.904 46.8056C106.904 46.7287 106.827 46.6519 106.673 46.6519C106.596 46.6519 106.596 46.6519 106.596 46.6519V46.9593Z" fill="#A30046"/>
<path d="M21.627 43.2702C19.7799 43.6544 17.8557 44.1156 16.0086 44.5767C15.0081 44.8073 14.4693 43.8082 14.4693 42.809V35.7382C13.3918 36.0457 12.2373 36.2762 11.1598 36.5837V45.8064C8.77393 46.4981 6.31107 47.1898 3.92517 47.8816V43.2702C4.38696 43.1165 4.84874 42.9627 5.3875 42.7322V29.5129C4.92571 29.6666 4.46392 29.7434 3.92517 29.8971V25.132C8.00429 23.9023 12.1604 22.7495 16.3165 21.6735C18.3945 21.1355 20.2416 22.7495 20.1647 25.0552C20.0877 26.2849 20.0877 27.5915 20.0107 28.8212C19.9338 30.5889 18.5484 31.8186 17.317 32.7408C18.9332 32.8177 20.0107 33.6631 20.0107 35.4308C20.0877 36.5068 20.0877 37.5828 20.1647 38.7356C20.6265 38.6588 21.1652 38.5819 21.627 38.5051V43.2702ZM14.3923 31.5111V27.1303C13.3148 27.4377 12.1604 27.6683 11.0829 27.9757V32.3566C12.2373 32.126 13.3148 31.8186 14.3923 31.5111Z" fill="white"/>
<path d="M38.8671 35.9688C38.8671 37.9671 37.7126 40.2728 35.7885 40.5034C32.9408 40.9645 30.0931 41.4256 27.3224 42.0405C25.6292 42.3479 24.0899 41.3488 24.0899 39.5042V23.3644C24.0899 21.2892 26.091 19.6753 27.7842 19.291C30.401 18.753 33.0178 18.2918 35.6346 17.9076C37.4048 17.6001 38.8671 18.9067 38.8671 20.8281V35.9688ZM33.0948 36.3531V23.1338C32.0172 23.2875 30.9397 23.5181 29.9392 23.6718V36.968C30.9397 36.7374 32.0172 36.5837 33.0948 36.3531Z" fill="white"/>
<path d="M60.4171 38.0439C58.1082 38.1208 55.7992 38.2745 53.4903 38.5051C53.2594 36.6605 53.1055 34.816 52.8746 32.9714C51.6431 33.0483 50.4117 33.202 49.1803 33.2788C48.9494 35.1234 48.7185 37.0448 48.4876 38.8894C46.1017 39.1199 43.7928 39.4274 41.4069 39.7348V35.0465C41.9456 34.9697 42.4844 34.8928 42.9461 34.816C43.9467 28.6675 44.9472 22.5958 45.9478 16.5241C49.1803 16.1398 52.3358 15.9093 55.5683 15.6787C56.6458 21.5967 57.7233 27.4378 58.8778 33.3557C59.3396 33.3557 59.8783 33.2788 60.3401 33.2788V38.0439H60.4171ZM52.4128 28.9749C51.951 25.9775 51.4892 22.9801 51.0274 19.9058C50.9505 19.9058 50.9505 19.9058 50.8735 19.9058C50.4887 22.9801 50.0269 26.0543 49.6421 29.2054C50.4887 29.1286 51.4892 29.0517 52.4128 28.9749Z" fill="white"/>
<path d="M82.8138 20.0595C82.352 20.0595 81.8902 20.0595 81.4284 20.0595V37.9671C79.5813 37.8902 77.6572 37.8134 75.81 37.7365C73.8859 33.8937 72.0388 30.0509 70.1147 26.2081V37.8134C67.7288 37.8134 65.3429 37.8902 62.957 37.9671V33.2789C63.4957 33.2789 63.9575 33.202 64.4963 33.202V19.9058C63.9575 19.9058 63.4957 19.9058 62.957 19.9827V15.2176C65.3429 15.1407 67.6518 15.0639 70.0377 15.0639C71.9618 18.8298 73.809 22.6727 75.7331 26.4386V15.1407C78.119 15.2176 80.4279 15.2944 82.8138 15.3713V20.0595Z" fill="white"/>
<path d="M100.362 35.4308C100.362 37.4291 99.2072 39.3505 97.2831 39.1968C94.4354 38.8893 91.5877 38.5819 88.74 38.4282C87.0468 38.2745 85.5075 36.8142 85.5075 35.0465V18.8298C85.5075 16.7547 87.5086 15.6787 89.2018 15.7556C91.8186 15.9861 94.4354 16.2167 97.0522 16.5241C98.8224 16.7547 100.285 18.4455 100.285 20.2901V35.4308H100.362ZM94.5124 34.278V20.9818C93.4349 20.9049 92.3573 20.7512 91.2798 20.6744V33.9705C92.3573 34.0474 93.4349 34.2011 94.5124 34.278Z" fill="white"/>
<path d="M120.988 43.1165C118.525 42.5785 116.062 42.0405 113.523 41.5793V32.9714C112.445 32.7409 111.445 32.5871 110.367 32.4334V41.1182C107.827 40.6571 105.287 40.2728 102.825 39.9654V35.2003C103.286 35.2771 103.825 35.354 104.287 35.4308C104.287 30.9732 104.287 26.5923 104.287 22.1347C103.825 22.0578 103.286 21.981 102.825 21.9041V17.2159C105.364 17.5233 107.904 17.9844 110.367 18.3687C110.367 21.5967 110.367 24.7478 110.367 27.9758C111.752 24.9784 113.215 22.0578 114.6 19.1373C116.524 19.5215 118.448 19.9058 120.372 20.2901V25.0552C119.68 24.9015 118.987 24.8246 118.294 24.6709C117.448 26.1312 116.601 27.6683 115.678 29.1286C116.986 29.3592 118.217 29.6666 119.526 29.8972V38.0439C119.988 38.1208 120.449 38.2745 120.911 38.3514V43.1165H120.988Z" fill="white"/>
<path d="M139.152 47.8816C133.995 46.2676 128.762 44.8842 123.605 43.6544V38.9662C124.067 39.0431 124.606 39.1968 125.067 39.2736V26.0543C124.606 25.9006 124.144 25.8238 123.605 25.7469V21.0587C128.762 22.2115 134.149 23.6718 139.152 25.2858V32.4334C137.536 31.9723 135.688 31.3574 134.072 30.9731V28.4369C132.995 28.1294 131.917 27.822 130.763 27.5146V31.7417C132.225 32.126 133.764 32.5871 135.227 33.0483V37.1985C133.764 36.7374 132.225 36.3531 130.763 35.9688V40.8108C131.84 41.1182 132.995 41.4256 134.072 41.733V38.7356C135.765 39.1968 137.459 39.7348 139.152 40.1959V47.8816Z" fill="white"/>
<path d="M91.126 88.6155C90.3563 88.7692 89.9715 88.7692 89.7406 89.3072C89.5867 89.8452 90.1254 90.6906 90.3563 91.1518C90.5872 91.536 91.126 91.9203 91.5878 91.6129C91.5878 91.6129 92.5113 91.4592 92.4344 90.5369C92.3574 89.6915 92.2035 89.2303 92.2035 89.2303C92.2035 89.2303 91.8956 88.3849 91.126 88.6155Z" fill="black"/>
<path d="M137.382 37.4291V34.0474C138.921 34.5086 140.999 35.1234 140.999 35.1234L141.307 35.2003V23.6718L140.999 23.5949C132.533 20.905 121.142 18.0613 113.523 16.7547L112.599 18.6761V16.601C112.599 16.601 110.598 16.2167 109.29 16.063V5.53368L71.5 1.69086L33.7105 5.53368V16.063C31.6324 16.4473 29.4774 16.7547 27.3994 17.2159C24.9365 17.677 22.3197 19.9058 22.0119 22.7495C21.2422 20.7513 18.8563 18.8298 15.8547 19.5984C11.6986 20.6744 5.92628 22.2115 1.7702 23.5181V32.8177L3.0786 32.4334V41.1951C2.61681 41.3488 1.61627 41.7331 1.61627 41.7331V50.9558C5.2336 49.803 10.2363 48.4196 13.007 47.651L30.7858 63.0223H33.7105C34.3262 73.3211 37.7896 83.2355 43.7928 91.9203C51.1814 102.603 61.2637 109.674 71.3461 114.132C76.5797 111.98 82.5059 108.368 86.5081 105.063C94.3585 105.754 99.2072 102.373 98.6685 94.764C98.6685 94.764 100.208 94.3029 100.131 90.8443C103.286 90.998 104.749 87.3858 103.44 84.3884C106.75 77.7019 108.674 70.4774 109.059 63.0223H111.906L129.839 47.5742C133.226 48.4964 137.92 49.8798 141.153 50.879V38.6588C141.23 38.6588 138.151 37.6597 137.382 37.4291ZM123.528 39.0431C123.99 39.1199 124.529 39.2737 124.99 39.3505V26.0544C124.529 25.9006 124.067 25.8238 123.528 25.7469V21.0587C128.685 22.2115 134.072 23.6718 139.075 25.2858V32.4334C137.459 31.9723 135.611 31.3574 133.995 30.9732V28.4369C132.918 28.1295 131.84 27.822 130.686 27.5146V31.7417C132.148 32.126 133.687 32.5871 135.15 33.0483V37.1985C133.687 36.7374 132.148 36.3531 130.686 35.9688V40.8108C131.763 41.1182 132.918 41.4256 133.995 41.7331V38.7357C135.688 39.1968 137.382 39.7348 139.075 40.1959V47.8816C133.918 46.2676 128.685 44.8842 123.528 43.6545V39.0431ZM120.449 25.0552C119.757 24.9015 119.064 24.8246 118.371 24.6709C117.525 26.1312 116.678 27.6683 115.755 29.1286C117.063 29.3592 118.294 29.6666 119.603 29.8972V38.044C120.065 38.1208 120.526 38.2745 120.988 38.3514V43.1165C118.525 42.5785 116.062 42.0405 113.523 41.5793V32.9714C112.445 32.7409 111.445 32.5871 110.367 32.4334V41.1182C107.827 40.6571 105.287 40.2728 102.825 39.9654V35.2003C103.286 35.2771 103.825 35.354 104.287 35.4308C104.287 30.9732 104.287 26.5923 104.287 22.1347C103.825 22.0578 103.286 21.981 102.825 21.9041V17.2159C105.364 17.5233 107.904 17.9844 110.367 18.3687C110.367 21.5967 110.367 24.7478 110.367 27.9758C111.752 24.9784 113.215 22.0578 114.6 19.1373C116.524 19.5216 118.448 19.9058 120.372 20.2901V25.0552H120.449ZM35.4037 7.30138L71.423 3.45856L107.442 7.30138V15.6787C107.058 15.6019 106.673 15.525 106.288 15.525C105.21 15.3713 104.21 15.2176 103.132 15.0639L100.67 14.7565V16.1399C99.746 15.2176 98.5915 14.6027 97.2831 14.449C94.6663 14.1416 91.9726 13.911 89.3558 13.6805C89.2018 13.6805 89.0479 13.6805 88.894 13.6805C87.5856 13.6805 86.2002 14.1416 85.1997 14.9102C85.1227 14.987 85.0458 15.0639 84.9688 15.1407V13.373L82.8908 13.2962C80.5049 13.1425 78.119 13.0656 75.7331 13.0656L73.5781 12.9888V17.2927L71.423 12.9888L71.3461 12.835H70.0377C67.6518 12.835 65.2659 12.9119 62.88 12.9888L60.802 13.1425V22.2115L62.3412 22.1347V31.05L60.648 31.1269C59.6475 25.8238 58.7239 20.5207 57.7234 15.2944L57.3386 13.4499L55.4144 13.6036C52.1819 13.8342 48.9494 14.1416 45.7169 14.449L44.1007 14.6027L43.8698 16.1399C42.9462 21.7504 42.0226 27.2841 41.099 32.8946H40.9451V20.8281C40.9451 19.4447 40.4833 18.1381 39.5598 17.2159C38.7901 16.3704 37.7126 15.8324 36.5581 15.7556C36.4042 15.7556 36.1733 15.7556 36.0194 15.7556C35.7885 15.7556 35.5576 15.7556 35.4037 15.8324V7.30138ZM100.285 20.2901V35.4308C100.285 37.3522 99.2072 39.1968 97.514 39.1968C97.437 39.1968 97.3601 39.1968 97.2062 39.1968C94.3585 38.8894 91.5108 38.582 88.6631 38.4282C86.9699 38.2745 85.4306 36.8143 85.4306 35.0466V18.8298C85.4306 16.9084 87.2777 15.7556 88.894 15.7556C88.9709 15.7556 89.0479 15.7556 89.2018 15.7556C91.8186 15.9862 94.4354 16.2167 97.0522 16.5242C98.8224 16.6779 100.285 18.4456 100.285 20.2901ZM62.957 33.202C63.4957 33.202 63.9575 33.1251 64.4963 33.1251V19.9058C63.9575 19.9058 63.4957 19.9058 62.957 19.9827V15.2176C65.3429 15.1407 67.6518 15.0639 70.0377 15.0639C71.9618 18.8298 73.809 22.6727 75.7331 26.4386V15.1407C78.119 15.2176 80.4279 15.2944 82.8138 15.3713V20.0595C82.352 20.0595 81.8902 20.0595 81.4284 20.0595V37.9671C79.5813 37.8902 77.6572 37.8134 75.81 37.7365C73.8859 33.8937 72.0388 30.0509 70.1147 26.2081V37.8134C67.7288 37.8134 65.3429 37.8902 62.957 37.9671V33.202ZM60.3402 33.2789V38.044C58.0312 38.1208 55.7223 38.2745 53.4134 38.5051C53.1825 36.6605 53.0285 34.816 52.7976 32.9714C51.5662 33.0483 50.3348 33.202 49.1034 33.2789C48.8725 35.1234 48.6416 37.0448 48.4107 38.8894C46.0248 39.1199 43.7158 39.4274 41.3299 39.7348V35.0466C41.8687 34.9697 42.4074 34.8928 42.8692 34.816C43.8698 28.6675 44.8703 22.5958 45.8708 16.5242C49.1034 16.1399 52.2589 15.9093 55.4914 15.6787C56.5689 21.5967 57.6464 27.4378 58.8009 33.3557C59.3396 33.2789 59.8784 33.2789 60.3402 33.2789ZM35.5576 17.9076C35.7115 17.9076 35.8655 17.8307 36.0194 17.8307C37.5587 17.8307 38.7901 19.0604 38.7901 20.7513V35.892C38.7901 37.8902 37.6356 40.1959 35.7115 40.4265C32.8639 40.8876 30.0162 41.3488 27.2454 41.9636C27.0146 42.0405 26.8606 42.0405 26.6297 42.0405C25.2444 42.0405 24.0129 41.0414 24.0129 39.4274V23.3644C24.0129 21.2892 26.014 19.6753 27.7072 19.291C30.324 18.753 32.9408 18.3687 35.5576 17.9076ZM11.1599 36.6605V45.8833C8.77397 46.575 6.3111 47.2667 3.92521 47.9584V43.347C4.38699 43.1933 4.84878 43.0396 5.38753 42.8091V29.5129C4.92574 29.6666 4.46396 29.7435 3.92521 29.8972V25.1321C8.00432 23.9024 12.1604 22.7495 16.3165 21.6735C16.5474 21.5967 16.8552 21.5967 17.0861 21.5967C18.8563 21.5967 20.2417 23.0569 20.0877 25.1321C20.0108 26.3618 20.0108 27.6683 19.9338 28.898C19.8569 30.6657 18.4715 31.8954 17.2401 32.8177C18.8563 32.8946 19.9338 33.74 19.9338 35.5077C20.0108 36.5837 20.0108 37.6597 20.0877 38.8125C20.5495 38.7357 21.0883 38.6588 21.5501 38.582V43.2702C19.7029 43.6545 17.7788 44.1156 15.9317 44.5768C15.8547 44.5768 15.7008 44.6536 15.6238 44.6536C14.7772 44.6536 14.3924 43.7313 14.3924 42.8859V35.8151C13.3149 36.0457 12.2374 36.3531 11.1599 36.6605ZM35.4806 63.0223H44.4085C41.7148 64.7131 39.3289 66.7114 37.4048 69.0171C37.0969 69.4014 36.789 69.8625 36.4812 70.2468C35.9424 67.8643 35.6346 65.4817 35.4806 63.0223ZM84.7379 104.294C80.8127 107.292 76.5027 109.905 71.8848 111.98L71.423 112.21L70.9613 111.98C60.4171 107.215 51.5662 99.9134 45.3321 90.8443C41.4069 85.157 38.5592 78.9316 36.943 72.3988C37.3278 72.3988 37.7896 72.4756 38.1744 72.4756C50.4887 73.7822 58.8009 84.2347 58.493 92.8426C63.0339 94.6103 66.6513 96.378 71.5 100.836C72.0388 101.374 72.6545 101.912 73.2702 102.527C74.6556 103.603 76.1179 104.14 77.0415 104.448C77.4263 104.525 78.3499 104.525 79.2734 103.065C80.197 101.604 81.5054 97.5308 81.8133 91.8435C81.8133 91.8435 81.8902 91.9203 82.1211 91.9972C82.1981 91.9972 82.1981 91.9972 82.275 92.074C82.429 92.1509 82.5059 92.2278 82.6599 92.3046C82.7368 92.3046 82.8138 92.3815 82.8908 92.3815H82.9677C83.0447 92.3815 83.1217 92.4583 83.1986 92.4583H83.2756C83.3525 92.5352 83.4295 92.5352 83.5065 92.612C83.6604 92.6889 83.8913 92.8426 84.0452 92.9963C84.0452 92.9963 84.1222 92.9963 84.1222 93.0732C84.1992 93.15 84.2761 93.15 84.3531 93.2269C84.3531 93.2269 84.43 93.2269 84.43 93.3037C84.507 93.3806 84.584 93.4575 84.6609 93.4575C84.6609 93.4575 84.7379 93.4575 84.7379 93.5343C84.9688 93.688 85.1227 93.8417 85.3536 93.9955C85.3536 93.9955 85.3536 93.9955 85.4306 94.0723C85.5076 94.1492 85.5845 94.226 85.6615 94.3029L85.7384 94.3797C85.8154 94.4566 85.8924 94.5334 85.9693 94.6103L86.0463 94.6872C86.1233 94.764 86.2002 94.8409 86.2772 94.9946C86.3542 95.0714 86.4311 95.2252 86.5081 95.302C86.5081 95.302 86.5081 95.302 86.5851 95.3789C86.662 95.4557 86.739 95.5326 86.8159 95.6094L86.8929 95.6863C86.9699 95.7632 86.9699 95.84 87.0468 95.9169L87.1238 95.9937C87.2008 96.0706 87.2008 96.1474 87.2777 96.3011C87.2777 96.3011 87.2777 96.378 87.3547 96.378C87.4317 96.5317 87.5086 96.6086 87.5086 96.7623C87.5086 96.7623 87.5086 96.7623 87.5086 96.8391C87.5856 96.916 87.5856 97.0697 87.6626 97.1466C87.6626 97.2234 87.6626 97.2234 87.6626 97.3003C87.6626 97.3771 87.7395 97.454 87.7395 97.6077C87.7395 97.6846 87.7395 97.6846 87.7395 97.7614C87.7395 97.8383 87.7395 97.9151 87.8165 98.0688C87.8165 98.1457 87.8165 98.1457 87.8165 98.2226C87.8165 98.3763 87.8165 98.53 87.8165 98.6068C87.8165 99.2217 87.7395 99.9134 87.4317 100.605C86.9699 101.681 86.1233 102.911 84.7379 104.294ZM100.977 88.7692C100.439 89.5378 99.4381 89.6915 98.6685 89.6915H98.2067C97.9758 89.6915 97.7449 89.6915 97.6679 89.6146C97.591 89.6146 97.591 89.6146 97.591 89.6146C97.591 89.6146 98.8224 91.7666 96.5904 94.0723C96.6674 94.5334 97.514 98.2994 95.359 100.836C93.204 103.372 89.9715 103.833 87.2777 103.372C90.4333 100.528 89.5867 97.5309 89.1249 96.3011C88.6631 95.0714 87.2777 92.7657 83.7374 91.0749C82.8908 90.6906 81.9672 88.9229 81.2745 87.7701C80.6588 86.6172 77.5032 83.6198 74.6556 82.7744C74.6556 82.7744 75.0404 88.0006 75.5022 90.0758C75.887 91.9203 76.5797 95.7631 76.8875 98.0688C77.8111 97.3003 79.6582 92.612 79.6582 92.612C78.3499 99.6828 77.1184 100.913 76.8875 101.066C76.7336 101.374 76.5027 101.527 76.1179 101.451L75.2713 101.297C75.2713 101.297 75.0404 100.451 74.9634 99.068C74.8865 97.6846 74.7325 96.4549 73.9629 94.3797C73.2702 92.3046 72.4236 91.8435 71.0382 89.3072C71.0382 89.3072 69.8838 82.3901 68.6523 79.4696C68.6523 79.4696 75.3482 79.5464 78.9656 83.543C82.5829 87.5395 83.0447 87.4627 84.1992 88.4618C85.3536 89.4609 86.1233 90.4601 86.1233 90.4601C86.1233 90.4601 86.3542 88.6924 87.3547 87.6164C88.2783 86.6941 90.4333 86.4635 90.972 86.4635H90.8951C89.8176 86.3867 88.2783 86.3867 87.2008 84.4653C85.9693 82.2364 83.8143 78.0093 82.352 75.473C81.2745 73.6285 79.5043 70.8617 76.6566 69.2477C73.8859 67.7874 66.5743 66.0966 62.7261 67.8643C68.3445 70.17 69.8068 75.2425 69.8068 75.2425C65.9586 71.9377 62.0334 71.3997 59.7244 71.3997C67.113 75.7036 66.5743 80.315 66.3434 81.3141C68.3445 84.7727 69.5759 89.4609 68.6523 95.9169C67.6518 95.0714 66.4973 94.3797 65.2659 93.7649C63.4187 92.8426 61.5716 92.1509 60.0323 91.6898C60.4171 82.6976 53.9521 71.1691 37.3278 71.3228C46.7175 65.7123 58.7239 65.2511 58.7239 65.2511C58.7239 65.2511 51.6432 62.2537 41.253 66.942C54.7987 58.5646 70.0377 55.1829 82.1981 57.8729C84.2761 58.3341 87.7395 59.948 91.126 62.5612C94.5894 65.1743 97.514 68.7865 98.8224 72.7831C100.131 76.8565 100.516 81.929 100.977 83.6967C101.516 85.6181 102.209 87.0784 100.977 88.7692ZM84.507 81.4678C84.43 82.2364 83.8143 82.7744 83.1217 82.6976C82.6599 82.6976 82.275 82.467 82.0441 82.0827C82.0441 82.1596 82.0441 82.1596 82.0441 82.2364C81.9672 83.2355 82.7368 84.0041 83.7374 84.081C84.3531 84.081 84.9688 83.7735 85.2767 83.3124C85.5076 83.8504 85.8154 84.3884 86.1233 84.7727C85.4306 85.3107 84.584 85.695 83.6604 85.6181C81.7363 85.5412 80.197 83.8504 80.3509 81.929C80.4279 80.2381 81.7363 78.8547 83.3525 78.6242C83.6604 79.1622 83.9683 79.8539 84.2761 80.5456C84.43 80.7761 84.507 81.0836 84.507 81.4678ZM102.748 81.7753C102.594 81.1604 102.44 80.4687 102.363 79.777C101.747 76.2416 101.208 71.5534 100.208 69.632C99.5151 68.3254 97.0522 65.5586 94.5124 63.0223H107.365C106.981 69.4782 105.441 75.8573 102.748 81.7753ZM111.368 61.4083H96.5904L113.907 57.8729C113.907 57.8729 95.8978 53.8764 71.423 53.8764C46.9484 53.8764 28.9387 57.8729 28.9387 57.8729L46.1787 61.4083H31.4015C29.7853 60.0249 21.3961 52.6467 17.2401 49.1113C20.6265 48.9576 24.0129 48.8039 27.3994 48.727L28.6308 56.3358V44.8073C42.5614 42.2711 56.8768 40.9645 71.423 40.9645C86.0463 40.9645 100.362 42.2711 114.215 44.8073V48.6501V56.3358L115.447 48.727C118.833 48.8807 122.22 48.9576 125.606 49.1113C121.45 52.5698 113.446 59.5638 111.368 61.4083Z" fill="black"/>
<path d="M11.0829 32.4335C12.1604 32.126 13.3149 31.8186 14.3924 31.588V27.2072C13.3149 27.5146 12.1604 27.7452 11.0829 28.0526V32.4335Z" fill="black"/>
<path d="M33.0178 23.1338C31.9403 23.2875 30.8628 23.5181 29.8622 23.6718V36.968C30.9397 36.7374 32.0173 36.5837 33.0178 36.43V23.1338Z" fill="black"/>
<path d="M50.7966 19.9827C50.4117 23.057 49.9499 26.1312 49.5651 29.2823C50.4887 29.2055 51.4123 29.1286 52.4128 29.0518C51.951 26.0544 51.4892 23.057 51.0275 19.9827C50.8735 19.9827 50.8735 19.9827 50.7966 19.9827Z" fill="black"/>
<path d="M91.2799 33.9706C92.3574 34.0474 93.4349 34.1243 94.5124 34.278V20.9818C93.4349 20.905 92.3574 20.7513 91.2799 20.6744V33.9706Z" fill="black"/>
</g>
<defs>
<clipPath id="clip0_4541_165860">
<rect width="143" height="115.976" fill="white"/>
</clipPath>
</defs>
</svg>
